<?xml version="1.0" encoding="UTF-8" standalone="no"?>
<!-- Created with Inkscape (http://www.inkscape.org/) -->

<svg
   version="1.1"
   id="svg1"
   width="3850.8799"
   height="1227.52"
   viewBox="0 0 3850.8799 1227.52"
   xmlns="http://www.w3.org/2000/svg"
   xmlns:svg="http://www.w3.org/2000/svg">
  <defs
     id="defs1" />
  <g
     id="g1">
    <path
       style="display:inline;fill:#f0297c"
       d="m 3171.9999,1226.5288 c -255.024,-0.3183 -473.2389,-0.6215 -484.9219,-0.6737 l -21.242,-0.095 2.842,-3.6589 c 17.5529,-22.5988 51.615,-57.9718 163.7973,-170.1011 74.0777,-74.04267 85.3528,-85.48022 100.782,-102.23336 17.0316,-18.49308 32.7968,-35.14792 53.7708,-56.80521 5.6255,-5.80878 41.9192,-42.31342 80.6525,-81.12142 81.7111,-81.86853 94.5076,-94.94024 126.5582,-129.28 42.8433,-45.90325 64.2621,-67.95377 156.9708,-161.6 60.966,-61.58255 67.085,-67.79338 87.175,-88.48348 20.5258,-21.13889 26.8434,-27.45917 50.3065,-50.32738 49.6927,-48.43286 75.0656,-77.71698 86.0037,-99.2609 3.9401,-7.76054 4.8583,-11.25257 5.5975,-21.28825 2.8094,-38.13943 2.989,-75.4098 0.8241,-171.039999 C 3580.1362,47.26571 3579.8436,30.09179 3579.8416,15.76 V 2.56 h 135.36 135.36 V 614.88001 1227.2 l -107.44,-0.046 c -59.092,-0.025 -316.096,-0.3066 -571.12,-0.6249 z"
       id="path5" />
    <path
       style="display:inline;fill:#000000"
       d="M 0.31999999,614.87812 V 2.5562233 L 751.59998,2.6553326 C 1329.4737,2.731566 1504.3572,2.842719 1509.28,3.1369014 c 21.7605,1.3003931 33.1947,2.2315456 46.24,3.76556 158.4905,18.6372576 247.6254,94.9622486 268.295,229.7375386 1.8003,11.73851 2.9509,22.91175 4.0697,39.52 0.5298,7.86322 0.7839,136.15377 0.29,146.36237 -3.4852,72.03552 -35.8213,128.39749 -98.61,171.87755 -5.9326,4.1082 -5.741,3.54711 -1.7935,5.2512 71.5106,30.87073 110.3886,83.90686 114.162,155.73606 0.4963,9.4474 0.2412,189.579 -0.2787,196.77284 -2.9293,40.53637 -8.4092,68.84508 -18.7681,96.95468 -41.8726,113.6243 -147.5985,172.0046 -321.9264,177.7633 -6.2553,0.2066 -269.3453,0.318 -755.12002,0.3196 H 0.31999999 Z M 1490.72,941.98804 c 34.2104,-4.47585 50.806,-19.39092 52.9499,-47.58803 0.444,-5.83893 0.4491,-116.65873 0.01,-121.33527 -2.0541,-21.66189 -18.5963,-33.27397 -50.501,-35.45013 -3.3854,-0.23092 -189.2347,-0.3346 -599.75998,-0.3346 H 298.55999 v 102.72137 102.72137 l 593.99998,-0.0952 c 557.00333,-0.0893 594.25913,-0.12912 598.16003,-0.63949 z m 6.1195,-460.7756 c 30.6883,-4.10178 44.8676,-17.37293 46.8585,-43.85746 0.7304,-9.71552 0.2168,-108.27523 -0.5857,-112.39497 -4.2803,-21.9751 -19.9952,-33.28796 -51.6581,-37.18764 -4.3496,-0.5357 -33.7572,-0.56759 -598.73423,-0.64915 l -594.15998,-0.0858 v 97.22795 c 0,53.47537 0.0968,97.32479 0.2152,97.44315 0.53884,0.53884 1194.01861,0.0446 1198.06431,-0.4961 z m 447.6916,741.12876 c 5.0705,-9.9147 8.2773,-13.9678 19.1955,-24.2612 23.7628,-22.403 122.0417,-119.4053 190.524,-188.0492 97.7559,-97.98658 173.3684,-175.99981 241.251,-248.91079 12.8438,-13.79524 13.7434,-14.73855 28.654,-30.04687 17.6973,-18.16949 39.8308,-39.62423 77.2832,-74.91313 72.0807,-67.91697 99.3162,-95.05326 129.759,-129.28624 19.551,-21.98524 28.2426,-30.85485 71.8425,-73.31368 19.9332,-19.41152 31.0667,-30.81892 44.312,-45.40204 8.4303,-9.28182 18.6116,-19.5682 44.2625,-44.71936 32.9204,-32.27913 47.7861,-48.05045 58.1221,-61.66315 3.2841,-4.32531 8.503,-12.02958 8.503,-12.55244 0,-0.1447 -219.456,-0.2631 -487.68,-0.2631 -268.224,0 -487.68,-0.11106 -487.68,-0.2468 0,-0.13574 -0.648,-5.20868 -1.44,-11.2732 l -1.44,-11.02639 V 134.52996 2.6463133 l 61.68,-0.2131706 c 106.7018,-0.3687691 242.2228,-0.8162789 350.32,-1.1568064 648.6233,-2.04329148 1032.7073,-0.92708697 1059.12,3.0779584 l 1.2,0.18196 V 95.308129 c 0,89.274261 0.1188,102.262931 1.1291,127.571871 2.257,56.54314 0.019,64.5993 -25.1799,90.62285 -9.5321,9.84426 -14.6795,15.5237 -36.761,40.56059 -14.9488,16.94966 -24.8369,27.38788 -36.2154,38.23046 -4.6734,4.45334 -129.476,133.33036 -325.2476,335.86611 -174.7154,180.752 -321.6429,332.67199 -326.5056,337.59999 -13.9024,14.0891 -20.473,21.2681 -48.033,52.48 -67.1072,75.9998 -96.2555,102.6685 -118.3919,108.3204 -2.4941,0.6368 -3.6001,0.6396 -248.7888,0.6396 h -246.2836 z"
       id="path2" />
  </g>
</svg>
